<svg width="22" height="22" viewBox="0 0 22 22" fill="none" xmlns="http://www.w3.org/2000/svg">
<path d="M17.417 20.8542C16.1337 20.8542 14.9329 20.2951 14.1079 19.3142C14.0987 19.2959 14.0437 19.25 13.9979 19.1767C13.897 19.0759 13.7779 18.8925 13.677 18.7184C13.2737 18.0675 13.0537 17.2976 13.0537 16.4909C13.0537 15.1526 13.6495 13.9151 14.6854 13.0901C15.4554 12.4759 16.427 12.1367 17.4079 12.1367C18.4712 12.1367 19.452 12.5034 20.2404 13.1909C20.3504 13.2642 20.4787 13.4017 20.5979 13.5301C21.3404 14.3459 21.7529 15.3909 21.7529 16.4817C21.7529 17.2792 21.5329 18.0584 21.1204 18.7276C20.9004 19.1126 20.5979 19.4609 20.2495 19.7542C19.507 20.4692 18.4895 20.8542 17.417 20.8542ZM17.417 13.5209C16.7387 13.5209 16.097 13.75 15.5562 14.1809C14.8504 14.74 14.4379 15.5926 14.4379 16.5001C14.4379 17.0409 14.5845 17.5725 14.8687 18.0309C14.942 18.1592 15.0154 18.2601 15.0979 18.3609C15.1162 18.3793 15.1712 18.4342 15.217 18.5076C15.7212 19.1034 16.5462 19.4884 17.417 19.4884C18.1412 19.4884 18.8379 19.2226 19.3695 18.7459C19.6079 18.5442 19.8095 18.3059 19.9562 18.0492C20.2495 17.5817 20.3962 17.0501 20.3962 16.5092C20.3962 15.7667 20.112 15.0425 19.5987 14.4834C19.5345 14.41 19.4612 14.3367 19.3879 14.2817C18.8104 13.7684 18.1412 13.5209 17.417 13.5209Z" fill="black"/>
<path d="M18.7823 17.1689H16.0415C15.6657 17.1689 15.354 16.8573 15.354 16.4814C15.354 16.1056 15.6657 15.7939 16.0415 15.7939H18.7823C19.1582 15.7939 19.4698 16.1056 19.4698 16.4814C19.4698 16.8573 19.1673 17.1689 18.7823 17.1689Z" fill="black"/>
<path d="M17.4165 18.5719C17.0407 18.5719 16.729 18.2602 16.729 17.8844V15.1436C16.729 14.7677 17.0407 14.4561 17.4165 14.4561C17.7923 14.4561 18.104 14.7677 18.104 15.1436V17.8844C18.104 18.2694 17.7923 18.5719 17.4165 18.5719Z" fill="black"/>
<path d="M11.0001 12.1911C10.8809 12.1911 10.7617 12.1637 10.6517 12.0995L2.55755 7.41534C2.22755 7.22284 2.11756 6.80114 2.31006 6.47114C2.50256 6.14114 2.92421 6.03112 3.24505 6.22362L10.9909 10.7061L18.6909 6.25115C19.0209 6.05865 19.4426 6.17784 19.6259 6.49867C19.8184 6.82867 19.6992 7.25031 19.3784 7.44281L11.3392 12.0995C11.2384 12.1545 11.1192 12.1911 11.0001 12.1911Z" fill="black"/>
<path d="M11 20.4968C10.6242 20.4968 10.3125 20.1851 10.3125 19.8093V11.4951C10.3125 11.1193 10.6242 10.8076 11 10.8076C11.3758 10.8076 11.6875 11.1193 11.6875 11.4951V19.8093C11.6875 20.1851 11.3758 20.4968 11 20.4968Z" fill="black"/>
<path d="M11 20.8543C10.1933 20.8543 9.38663 20.6801 8.7633 20.3226L3.8683 17.6093C2.53914 16.8759 1.49414 15.1068 1.49414 13.5851V8.39674C1.49414 6.87507 2.53914 5.11511 3.8683 4.37261L8.7633 1.65926C10.01 0.953424 11.9716 0.953424 13.2275 1.65926L18.1225 4.37261C19.4516 5.10594 20.4966 6.87507 20.4966 8.39674V13.5851C20.4966 13.6768 20.4966 13.7501 20.4783 13.8417C20.4325 14.0801 20.2583 14.2817 20.0291 14.3551C19.8 14.4376 19.5433 14.3826 19.3508 14.2268C18.2966 13.3101 16.665 13.2734 15.5558 14.1626C14.85 14.7218 14.4375 15.5742 14.4375 16.4817C14.4375 17.0226 14.5841 17.5543 14.8683 18.0126C14.9416 18.1409 15.015 18.2418 15.0975 18.3426C15.235 18.4984 15.29 18.7093 15.2533 18.9109C15.2166 19.1126 15.0883 19.2868 14.905 19.3876L13.2275 20.3134C12.6041 20.6801 11.8066 20.8543 11 20.8543ZM11 2.52093C10.4316 2.52093 9.85414 2.6401 9.44164 2.86926L4.54664 5.58262C3.65748 6.06845 2.88746 7.3884 2.88746 8.39674V13.5851C2.88746 14.5934 3.66664 15.9134 4.54664 16.3993L9.44164 19.1126C10.2758 19.5801 11.7333 19.5801 12.5675 19.1126L13.5941 18.5442C13.255 17.9301 13.0716 17.2151 13.0716 16.4817C13.0716 15.1434 13.6675 13.9059 14.7033 13.0809C15.95 12.0818 17.7375 11.8709 19.1308 12.4667V8.37844C19.1308 7.37011 18.3516 6.0501 17.4716 5.56427L12.5766 2.85091C12.1458 2.64008 11.5683 2.52093 11 2.52093Z" fill="black"/>
</svg>
