<svg width="22" height="22" viewBox="0 0 22 22" fill="none" xmlns="http://www.w3.org/2000/svg">
<path d="M2.52148 2.97913L4.42815 3.30913L5.3109 13.826C5.34481 14.2399 5.53351 14.6257 5.83934 14.9066C6.14518 15.1875 6.54567 15.3427 6.9609 15.3413H16.9617C17.3593 15.3417 17.7437 15.1986 18.0442 14.9382C18.3446 14.6778 18.541 14.3177 18.5971 13.9241L19.4679 7.91263C19.4911 7.75275 19.4826 7.58987 19.4428 7.43329C19.403 7.27671 19.3328 7.12951 19.236 7.00011C19.1393 6.8707 19.0181 6.76163 18.8792 6.67913C18.7403 6.59663 18.5865 6.54231 18.4266 6.51929C18.3679 6.51288 4.73432 6.50829 4.73432 6.50829" stroke="#191C1F" stroke-width="1.5" stroke-linecap="round" stroke-linejoin="round"/>
<path d="M12.9492 9.89539H15.4911" stroke="#191C1F" stroke-width="1.5" stroke-linecap="round" stroke-linejoin="round"/>
<path fill-rule="evenodd" clip-rule="evenodd" d="M6.55932 18.5194C6.62655 18.5165 6.69366 18.5272 6.75662 18.551C6.81958 18.5747 6.87708 18.611 6.92567 18.6575C6.97425 18.704 7.01292 18.7599 7.03933 18.8218C7.06575 18.8837 7.07936 18.9503 7.07936 19.0176C7.07936 19.0849 7.06575 19.1515 7.03933 19.2133C7.01292 19.2752 6.97425 19.3311 6.92567 19.3777C6.87708 19.4242 6.81958 19.4605 6.75662 19.4842C6.69366 19.5079 6.62655 19.5187 6.55932 19.5158C6.43089 19.5103 6.30954 19.4554 6.22061 19.3626C6.13168 19.2697 6.08203 19.1461 6.08203 19.0176C6.08203 18.889 6.13168 18.7654 6.22061 18.6726C6.30954 18.5798 6.43089 18.5249 6.55932 18.5194Z" fill="#191C1F" stroke="#191C1F" stroke-width="1.5" stroke-linecap="round" stroke-linejoin="round"/>
<path fill-rule="evenodd" clip-rule="evenodd" d="M16.9 18.5194C17.0325 18.5194 17.1595 18.572 17.2532 18.6657C17.3469 18.7594 17.3996 18.8865 17.3996 19.019C17.3996 19.1515 17.3469 19.2786 17.2532 19.3723C17.1595 19.4659 17.0325 19.5186 16.9 19.5186C16.7675 19.5186 16.6404 19.4659 16.5467 19.3723C16.453 19.2786 16.4004 19.1515 16.4004 19.019C16.4004 18.8865 16.453 18.7594 16.5467 18.6657C16.6404 18.572 16.7675 18.5194 16.9 18.5194Z" fill="#191C1F" stroke="#191C1F" stroke-width="1.5" stroke-linecap="round" stroke-linejoin="round"/>
</svg>
