<svg width="22" height="22" viewBox="0 0 22 22" fill="none" xmlns="http://www.w3.org/2000/svg">
<path d="M10.1747 20.8541H6.32467C2.74051 20.8541 1.14551 19.2591 1.14551 15.6749V11.8249C1.14551 8.24075 2.74051 6.64575 6.32467 6.64575H10.1747C13.7588 6.64575 15.3538 8.24075 15.3538 11.8249V15.6749C15.3538 19.2591 13.7588 20.8541 10.1747 20.8541ZM6.32467 8.02075C3.48301 8.02075 2.52051 8.98325 2.52051 11.8249V15.6749C2.52051 18.5166 3.48301 19.4791 6.32467 19.4791H10.1747C13.0163 19.4791 13.9788 18.5166 13.9788 15.6749V11.8249C13.9788 8.98325 13.0163 8.02075 10.1747 8.02075H6.32467Z" fill="black"/>
<path d="M15.6747 15.3541H14.6663C14.2905 15.3541 13.9788 15.0424 13.9788 14.6666V11.8249C13.9788 8.98325 13.0163 8.02075 10.1747 8.02075H7.33301C6.95717 8.02075 6.64551 7.70909 6.64551 7.33325V6.32492C6.64551 2.74075 8.24051 1.14575 11.8247 1.14575H15.6747C19.2588 1.14575 20.8538 2.74075 20.8538 6.32492V10.1749C20.8538 13.7591 19.2588 15.3541 15.6747 15.3541ZM15.3538 13.9791H15.6747C18.5163 13.9791 19.4788 13.0166 19.4788 10.1749V6.32492C19.4788 3.48325 18.5163 2.52075 15.6747 2.52075H11.8247C8.98301 2.52075 8.02051 3.48325 8.02051 6.32492V6.64575H10.1747C13.7588 6.64575 15.3538 8.24075 15.3538 11.8249V13.9791Z" fill="black"/>
</svg>
