<svg width="18" height="18" viewBox="0 0 18 18" fill="none" xmlns="http://www.w3.org/2000/svg">
<path d="M0.799805 17L4.91541 12.8835M4.91985 12.8791L2.44871 10.4079C1.6007 9.56081 2.45404 7.74479 3.61317 7.6719C4.66029 7.60523 7.08432 7.98479 7.89055 7.17856L10.1039 4.9652C10.6524 4.41586 10.3039 3.18741 10.2684 2.51007C10.2168 1.60695 11.6533 0.491378 12.415 1.25316L16.5458 5.38476C17.3102 6.14744 16.1902 7.57945 15.2897 7.53145C14.6124 7.4959 13.3831 7.14745 12.8337 7.6959L10.6204 9.90926C9.81501 10.7155 10.1937 13.1386 10.1279 14.1857C10.055 15.3458 8.239 16.1991 7.3901 15.3502L4.91985 12.8791Z" stroke="#919190" stroke-width="1.5" stroke-linecap="round" stroke-linejoin="round"/>
</svg>
