<svg width="40" height="30" viewBox="0 0 40 30" fill="none" xmlns="http://www.w3.org/2000/svg">
<path d="M34.5455 7.5H29.0909V0H0V24.375H3.63636C3.63636 27.4875 6.07273 30 9.09091 30C12.1091 30 14.5455 27.4875 14.5455 24.375H25.4545C25.4545 27.4875 27.8909 30 30.9091 30C33.9273 30 36.3636 27.4875 36.3636 24.375H40V15L34.5455 7.5ZM9.09091 27.1875C7.58182 27.1875 6.36364 25.9312 6.36364 24.375C6.36364 22.8188 7.58182 21.5625 9.09091 21.5625C10.6 21.5625 11.8182 22.8188 11.8182 24.375C11.8182 25.9312 10.6 27.1875 9.09091 27.1875ZM25.4545 5.625H21.8182V18.75H18.1818V5.625H14.5455V18.75H10.9091V5.625H7.27273V18.75H3.63636V3.75H25.4545V5.625ZM30.9091 27.1875C29.4 27.1875 28.1818 25.9312 28.1818 24.375C28.1818 22.8188 29.4 21.5625 30.9091 21.5625C32.4182 21.5625 33.6364 22.8188 33.6364 24.375C33.6364 25.9312 32.4182 27.1875 30.9091 27.1875ZM29.0909 15V10.3125H33.6364L37.2 15H29.0909Z" fill="#FFB157"/>
</svg>
