<svg width="44" height="44" viewBox="0 0 44 44" fill="none" xmlns="http://www.w3.org/2000/svg">
<rect width="44" height="44" rx="8" fill="#F9F9F9"/>
<path fill-rule="evenodd" clip-rule="evenodd" d="M21.9866 25.0671C18.4409 25.0671 15.4141 25.6034 15.4141 27.7502C15.4141 29.8971 18.4216 30.4526 21.9866 30.4526C25.5313 30.4526 28.5591 29.9154 28.5591 27.7695C28.5591 25.6236 25.5506 25.0671 21.9866 25.0671V25.0671Z" stroke="#191C1F" stroke-width="1.5" stroke-linecap="round" stroke-linejoin="round"/>
<path fill-rule="evenodd" clip-rule="evenodd" d="M21.9865 22.0055C22.8197 22.0055 23.6343 21.7584 24.3271 21.2955C25.0199 20.8325 25.5599 20.1745 25.8788 19.4047C26.1976 18.6349 26.2811 17.7878 26.1185 16.9706C25.956 16.1533 25.5547 15.4026 24.9655 14.8134C24.3763 14.2242 23.6256 13.823 22.8084 13.6604C21.9911 13.4979 21.144 13.5813 20.3742 13.9002C19.6044 14.219 18.9464 14.759 18.4835 15.4519C18.0206 16.1447 17.7735 16.9592 17.7735 17.7925C17.7696 18.9058 18.208 19.9751 18.9924 20.7651C19.7768 21.5552 20.8429 22.0013 21.9562 22.0055H21.9865Z" stroke="#191C1F" stroke-width="1.429" stroke-linecap="round" stroke-linejoin="round"/>
</svg>
