<svg width="212" height="140" viewBox="0 0 212 140" fill="none" xmlns="http://www.w3.org/2000/svg">
<path d="M0 62.0001C0 55.8527 4.98352 50.8691 11.131 50.8691H117.357V73.1311H11.131C4.98351 73.1311 0 68.1476 0 62.0001Z" fill="#F3DE6D"/>
<path d="M106.823 65.3461V67.1311H105.094V65.3461H106.823ZM102.791 58.9691C103.09 58.3018 103.535 57.7861 104.128 57.4221C104.725 57.0535 105.411 56.8691 106.186 56.8691C106.825 56.8691 107.383 56.9741 107.859 57.1841C108.335 57.3941 108.704 57.6811 108.965 58.0451C109.226 58.4091 109.357 58.8221 109.357 59.2841C109.357 59.7555 109.264 60.1615 109.077 60.5021C108.89 60.8428 108.659 61.1531 108.384 61.4331C108.109 61.7131 107.833 61.9931 107.558 62.2731C107.283 62.5485 107.052 62.8541 106.865 63.1901C106.678 63.5215 106.585 63.9158 106.585 64.3731H105.332C105.332 63.8458 105.416 63.3908 105.584 63.0081C105.752 62.6208 105.96 62.2755 106.207 61.9721C106.459 61.6688 106.709 61.3841 106.956 61.1181C107.203 60.8521 107.411 60.5791 107.579 60.2991C107.752 60.0191 107.838 59.7041 107.838 59.3541C107.838 58.9248 107.684 58.5865 107.376 58.3391C107.068 58.0918 106.669 57.9681 106.179 57.9681C105.89 57.9681 105.605 58.0288 105.325 58.1501C105.05 58.2668 104.802 58.4278 104.583 58.6331C104.368 58.8385 104.21 59.0718 104.107 59.3331L102.791 58.9691Z" fill="#191C1F"/>
<path d="M99.5359 65.3461V67.1311H97.8069V65.3461H99.5359ZM95.5039 58.9691C95.8026 58.3018 96.2482 57.7861 96.8409 57.4221C97.4382 57.0535 98.1242 56.8691 98.8989 56.8691C99.5382 56.8691 100.096 56.9741 100.572 57.1841C101.048 57.3941 101.417 57.6811 101.678 58.0451C101.939 58.4091 102.07 58.8221 102.07 59.2841C102.07 59.7555 101.977 60.1615 101.79 60.5021C101.603 60.8428 101.372 61.1531 101.097 61.4331C100.822 61.7131 100.546 61.9931 100.271 62.2731C99.9956 62.5485 99.7646 62.8541 99.5779 63.1901C99.3912 63.5215 99.2979 63.9158 99.2979 64.3731H98.0449C98.0449 63.8458 98.1289 63.3908 98.2969 63.0081C98.4649 62.6208 98.6726 62.2755 98.9199 61.9721C99.1719 61.6688 99.4216 61.3841 99.6689 61.1181C99.9162 60.8521 100.124 60.5791 100.292 60.2991C100.465 60.0191 100.551 59.7041 100.551 59.3541C100.551 58.9248 100.397 58.5865 100.089 58.3391C99.7809 58.0918 99.3819 57.9681 98.8919 57.9681C98.6026 57.9681 98.3179 58.0288 98.0379 58.1501C97.7626 58.2668 97.5152 58.4278 97.2959 58.6331C97.0812 58.8385 96.9226 59.0718 96.8199 59.3331L95.5039 58.9691Z" fill="#191C1F"/>
<path d="M92.2488 65.3461V67.1311H90.5198V65.3461H92.2488ZM88.2168 58.9691C88.5155 58.3018 88.9611 57.7861 89.5538 57.4221C90.1511 57.0535 90.8371 56.8691 91.6118 56.8691C92.2511 56.8691 92.8088 56.9741 93.2848 57.1841C93.7608 57.3941 94.1295 57.6811 94.3908 58.0451C94.6521 58.4091 94.7828 58.8221 94.7828 59.2841C94.7828 59.7555 94.6895 60.1615 94.5028 60.5021C94.3161 60.8428 94.0851 61.1531 93.8098 61.4331C93.5345 61.7131 93.2591 61.9931 92.9838 62.2731C92.7085 62.5485 92.4775 62.8541 92.2908 63.1901C92.1041 63.5215 92.0108 63.9158 92.0108 64.3731H90.7578C90.7578 63.8458 90.8418 63.3908 91.0098 63.0081C91.1778 62.6208 91.3855 62.2755 91.6328 61.9721C91.8848 61.6688 92.1345 61.3841 92.3818 61.1181C92.6291 60.8521 92.8368 60.5791 93.0048 60.2991C93.1775 60.0191 93.2638 59.7041 93.2638 59.3541C93.2638 58.9248 93.1098 58.5865 92.8018 58.3391C92.4938 58.0918 92.0948 57.9681 91.6048 57.9681C91.3155 57.9681 91.0308 58.0288 90.7508 58.1501C90.4755 58.2668 90.2281 58.4278 90.0088 58.6331C89.7941 58.8385 89.6355 59.0718 89.5328 59.3331L88.2168 58.9691Z" fill="#191C1F"/>
<path d="M77.0977 67.1308V57.0088H80.6047C81.328 57.0088 81.9743 57.1325 82.5437 57.3798C83.1177 57.6271 83.568 57.9911 83.8947 58.4718C84.226 58.9525 84.3917 59.5428 84.3917 60.2428C84.3917 60.9148 84.24 61.4888 83.9367 61.9648C83.638 62.4361 83.218 62.7978 82.6767 63.0498C82.14 63.2971 81.517 63.4208 80.8077 63.4208H78.6237V67.1308H77.0977ZM78.6167 62.1958H80.7657C81.4097 62.1958 81.9347 62.0115 82.3407 61.6428C82.7467 61.2695 82.9497 60.7748 82.9497 60.1588C82.9497 59.5335 82.7397 59.0551 82.3197 58.7238C81.8997 58.3878 81.363 58.2198 80.7097 58.2198H78.6167V62.1958Z" fill="#191C1F"/>
<path d="M69.0246 57.0088H70.5436V65.8148H75.2196V67.1308H69.0176L69.0246 57.0088Z" fill="#191C1F"/>
<path d="M60.1309 67.1308V57.0088H66.6689L66.6619 58.3108H61.6359V61.3838H66.1229V62.6648H61.6289V65.8078L66.7879 65.8148V67.1308H60.1309Z" fill="#191C1F"/>
<path d="M56.0764 62.5528H50.8964V67.1308H49.3984V57.0088H50.8964V61.2508H56.0764V57.0088H57.5744V67.1308H56.0764V62.5528Z" fill="#191C1F"/>
<path d="M36.4375 57.0088C36.4748 57.0088 36.5845 57.0111 36.7665 57.0158C36.9532 57.0158 37.1772 57.0158 37.4385 57.0158C37.6998 57.0111 37.9658 57.0111 38.2365 57.0158C38.5118 57.0158 38.7568 57.0181 38.9715 57.0228C40.2082 57.0415 41.2138 57.2468 41.9885 57.6388C42.7632 58.0308 43.3302 58.5955 43.6895 59.3328C44.0535 60.0655 44.2355 60.9591 44.2355 62.0138C44.2355 63.1105 44.0418 64.0415 43.6545 64.8068C43.2672 65.5675 42.6745 66.1461 41.8765 66.5428C41.0832 66.9348 40.0775 67.1308 38.8595 67.1308H36.4375V57.0088ZM37.9635 58.2688V65.8708H38.8735C39.6388 65.8708 40.3038 65.7471 40.8685 65.4998C41.4378 65.2478 41.8788 64.8418 42.1915 64.2818C42.5042 63.7171 42.6605 62.9635 42.6605 62.0208C42.6605 61.0968 42.5112 60.3618 42.2125 59.8158C41.9138 59.2651 41.4845 58.8708 40.9245 58.6328C40.3692 58.3901 39.6995 58.2688 38.9155 58.2688H37.9635Z" fill="#191C1F"/>
<path d="M27.5508 67.1308V57.0088H34.0888L34.0818 58.3108H29.0558V61.3838H33.5428V62.6648H29.0488V65.8078L34.2078 65.8148V67.1308H27.5508Z" fill="#191C1F"/>
<path d="M18.6641 67.1308V57.0088H25.2021L25.1951 58.3108H20.1691V61.3838H24.6561V62.6648H20.1621V65.8078L25.3211 65.8148V67.1308H18.6641Z" fill="#191C1F"/>
<path d="M14.601 57.0088H16.106V67.1308H14.762L9.498 59.4238V67.1308H8V57.0088H9.449L14.601 64.5548V57.0088Z" fill="#191C1F"/>
<rect x="114.357" y="28" width="68" height="68" rx="34" fill="#F3DE6D"/>
<g filter="url(#filter0_d_360_10587)">
<rect x="118.357" y="32" width="60" height="60" rx="30" fill="#2DB324" shape-rendering="crispEdges"/>
<path d="M164.99 61.0171C164.423 51.3504 155.64 43.9004 145.523 45.5671C138.557 46.7171 132.973 52.3671 131.89 59.3337C131.257 63.3671 132.09 67.1837 133.907 70.3337L132.423 75.8504C132.09 77.1004 133.24 78.2337 134.473 77.8837L139.907 76.3837C142.373 77.8337 145.257 78.6671 148.34 78.6671C157.74 78.6671 165.54 70.3837 164.99 61.0171ZM156.49 68.2004C156.34 68.5004 156.157 68.7838 155.923 69.0504C155.507 69.5004 155.057 69.8337 154.557 70.0337C154.057 70.2504 153.507 70.3504 152.923 70.3504C152.073 70.3504 151.157 70.1504 150.207 69.7338C149.24 69.3171 148.29 68.7671 147.34 68.0837C146.373 67.3837 145.473 66.6004 144.607 65.7504C143.74 64.8837 142.973 63.967 142.273 63.017C141.59 62.067 141.04 61.1171 140.64 60.1671C140.24 59.2171 140.04 58.3004 140.04 57.4337C140.04 56.8671 140.14 56.3171 140.34 55.8171C140.54 55.3004 140.857 54.8338 141.307 54.4171C141.84 53.8838 142.423 53.6338 143.04 53.6338C143.273 53.6338 143.507 53.6837 143.723 53.7837C143.94 53.8837 144.14 54.0337 144.29 54.2504L146.223 56.9837C146.373 57.2004 146.49 57.3837 146.557 57.5671C146.64 57.7504 146.673 57.9171 146.673 58.0837C146.673 58.2837 146.607 58.4838 146.49 58.6838C146.373 58.8837 146.223 59.0837 146.023 59.2837L145.39 59.9504C145.29 60.0504 145.257 60.1504 145.257 60.2837C145.257 60.3504 145.273 60.4171 145.29 60.4837C145.323 60.5504 145.34 60.6004 145.357 60.6504C145.507 60.9337 145.773 61.2837 146.14 61.717C146.523 62.1504 146.923 62.6004 147.357 63.0337C147.807 63.4837 148.24 63.8837 148.69 64.267C149.123 64.6337 149.49 64.8837 149.773 65.0337C149.823 65.0504 149.873 65.0837 149.923 65.1004C149.99 65.1337 150.057 65.1337 150.14 65.1337C150.29 65.1337 150.39 65.0837 150.49 64.9837L151.123 64.3504C151.34 64.1337 151.54 63.9837 151.723 63.8837C151.923 63.7671 152.107 63.7004 152.323 63.7004C152.49 63.7004 152.657 63.7337 152.84 63.8171C153.023 63.9004 153.223 64.0004 153.423 64.1504L156.19 66.1171C156.407 66.2671 156.557 66.4504 156.657 66.6504C156.74 66.8671 156.79 67.0671 156.79 67.3004C156.69 67.5837 156.623 67.9004 156.49 68.2004Z" fill="white"/>
</g>
<defs>
<filter id="filter0_d_360_10587" x="78.3574" y="0" width="140" height="140" filterUnits="userSpaceOnUse" color-interpolation-filters="sRGB">
<feFlood flood-opacity="0" result="BackgroundImageFix"/>
<feColorMatrix in="SourceAlpha" type="matrix" values="0 0 0 0 0 0 0 0 0 0 0 0 0 0 0 0 0 0 127 0" result="hardAlpha"/>
<feOffset dy="8"/>
<feGaussianBlur stdDeviation="20"/>
<feComposite in2="hardAlpha" operator="out"/>
<feColorMatrix type="matrix" values="0 0 0 0 0 0 0 0 0 0 0 0 0 0 0 0 0 0 0.12 0"/>
<feBlend mode="normal" in2="BackgroundImageFix" result="effect1_dropShadow_360_10587"/>
<feBlend mode="normal" in="SourceGraphic" in2="effect1_dropShadow_360_10587" result="shape"/>
</filter>
</defs>
</svg>
