<svg width="44" height="44" viewBox="0 0 44 44" fill="none" xmlns="http://www.w3.org/2000/svg">
<rect width="44" height="44" rx="8" fill="#F9F9F9"/>
<path d="M14.8125 29.9375H27.1875" stroke="#191C1F" stroke-width="1.5" stroke-linecap="round" stroke-linejoin="round"/>
<path d="M27.875 18.9375C27.875 25.125 21 29.9375 21 29.9375C21 29.9375 14.125 25.125 14.125 18.9375C14.125 17.1141 14.8493 15.3655 16.1386 14.0761C17.428 12.7868 19.1766 12.0625 21 12.0625C22.8234 12.0625 24.572 12.7868 25.8614 14.0761C27.1507 15.3655 27.875 17.1141 27.875 18.9375V18.9375Z" stroke="#191C1F" stroke-width="1.5" stroke-linecap="round" stroke-linejoin="round"/>
<path d="M21 21.6875C22.5188 21.6875 23.75 20.4563 23.75 18.9375C23.75 17.4187 22.5188 16.1875 21 16.1875C19.4812 16.1875 18.25 17.4187 18.25 18.9375C18.25 20.4563 19.4812 21.6875 21 21.6875Z" stroke="#191C1F" stroke-width="1.5" stroke-linecap="round" stroke-linejoin="round"/>
</svg>
